<?xml version="1.0" ?><svg enable-background="new 0 0 512 512" id="Layer_2" version="1.1" viewBox="0 0 512 512" xml:space="preserve" xmlns="http://www.w3.org/2000/svg" xmlns:xlink="http://www.w3.org/1999/xlink"><g><g><circle cx="255.722" cy="118.278" fill="none" r="26.227" stroke="#474747" stroke-linecap="round" stroke-linejoin="round" stroke-miterlimit="10" stroke-width="15"/><path d="    M281.28,201.238l-0.861-5.199 M283.765,419.327l8.056-155.273l-5.701-34.007 M222.774,291.908l7.322,127.382 M231.688,196.039    l-10.429,69.525" fill="none" stroke="#474747" stroke-linecap="round" stroke-linejoin="round" stroke-miterlimit="10" stroke-width="15"/><line fill="none" stroke="#474747" stroke-linecap="round" stroke-linejoin="round" stroke-miterlimit="10" stroke-width="15" x1="257.179" x2="257.179" y1="283.091" y2="420.128"/><path d="    M193.894,288.057c-1.423-2.151-2.134-4.788-1.848-7.543l17.111-96.443c1.909-12.32,10.959-22.326,23.026-25.46h0    c5.592-1.452,9.846-5.999,10.922-11.675l0.851-4.489" fill="none" stroke="#474747" stroke-linecap="round" stroke-linejoin="round" stroke-miterlimit="10" stroke-width="15"/><path d="    M302.579,179.569c-3.176-10.212-11.425-18.215-21.983-20.957l0,0c-5.707-1.482-10.266-5.769-12.096-11.374l-1.564-4.79" fill="none" stroke="#474747" stroke-linecap="round" stroke-linejoin="round" stroke-miterlimit="10" stroke-width="15"/><path d="    M289.28,248.238l8.718,35.859c1.267,5.968,6.966,9.915,12.999,9.001l0,0c6.085-0.922,10.371-6.462,9.736-12.583l-12.958-73.039" fill="none" stroke="#474747" stroke-linecap="round" stroke-linejoin="round" stroke-miterlimit="10" stroke-width="15"/></g><g><circle cx="143.262" cy="139.402" fill="none" r="24.391" stroke="#474747" stroke-linecap="round" stroke-linejoin="round" stroke-miterlimit="10" stroke-width="15"/><path d="    M175.305,304.438l1.529-29.461l-10.604-63.255 M169.342,419.383l4.023-77.55 M118.161,397.289l1.268,22.06 M120.909,211.722    l-9.699,64.659l4.849,84.363" fill="none" stroke="#474747" stroke-linecap="round" stroke-linejoin="round" stroke-miterlimit="10" stroke-width="15"/><line fill="none" stroke="#474747" stroke-linecap="round" stroke-linejoin="round" stroke-miterlimit="10" stroke-width="15" x1="144.616" x2="144.616" y1="370.691" y2="420.128"/><line fill="none" stroke="#474747" stroke-linecap="round" stroke-linejoin="round" stroke-miterlimit="10" stroke-width="15" x1="144.616" x2="144.616" y1="292.681" y2="331.238"/><path d="    M111.95,267.216l-6.765,26.401c-1.178,5.551-6.479,9.221-12.089,8.371h0c-5.659-0.857-9.645-6.01-9.054-11.702l15.913-89.694    c1.776-11.458,10.192-20.764,21.415-23.678h0c5.201-1.351,9.157-5.579,10.158-10.858l0.792-4.175" fill="none" stroke="#474747" stroke-linecap="round" stroke-linejoin="round" stroke-miterlimit="10" stroke-width="15"/><path d="    M196.525,249.719l-8.716-49.127c-1.776-11.458-10.192-20.764-21.415-23.678h0c-5.308-1.378-9.548-5.365-11.25-10.578l-1.455-4.455    " fill="none" stroke="#474747" stroke-linecap="round" stroke-linejoin="round" stroke-miterlimit="10" stroke-width="15"/></g><g><path d="    M341.87,136.402c0-13.471,10.92-24.391,24.391-24.391" fill="none" stroke="#474747" stroke-linecap="round" stroke-linejoin="round" stroke-miterlimit="10" stroke-width="15"/><path d="    M388.487,125.765c2.63,3.893,4.166,8.586,4.166,13.637c0,13.471-10.92,24.391-24.391,24.391c-4.908,0-9.477-1.45-13.303-3.944" fill="none" stroke="#474747" stroke-linecap="round" stroke-linejoin="round" stroke-miterlimit="10" stroke-width="15"/><path d="    M394.342,419.383l7.492-144.406l-10.604-63.255 M345.909,211.722l-9.699,64.659l8.218,142.967" fill="none" stroke="#474747" stroke-linecap="round" stroke-linejoin="round" stroke-miterlimit="10" stroke-width="15"/><line fill="none" stroke="#474747" stroke-linecap="round" stroke-linejoin="round" stroke-miterlimit="10" stroke-width="15" x1="369.616" x2="369.616" y1="292.681" y2="420.128"/><path d="    M316.28,251.238l8.674-50.647c1.776-11.458,10.192-20.764,21.415-23.678l0,0c5.201-1.351,9.157-5.579,10.158-10.858l0.792-4.175" fill="none" stroke="#474747" stroke-linecap="round" stroke-linejoin="round" stroke-miterlimit="10" stroke-width="15"/><path d="    M401.463,267.865l6.116,25.751c1.178,5.551,6.479,9.221,12.089,8.371h0c5.659-0.857,9.645-6.01,9.054-11.702l-15.913-89.694    c-1.776-11.458-10.192-20.764-21.415-23.678l0,0c-5.308-1.378-9.548-5.365-11.25-10.578l-1.455-4.455" fill="none" stroke="#474747" stroke-linecap="round" stroke-linejoin="round" stroke-miterlimit="10" stroke-width="15"/></g><circle cx="256.389" cy="256.09" fill="none" r="244" stroke="#474747" stroke-linecap="round" stroke-linejoin="round" stroke-miterlimit="10" stroke-width="15"/><line fill="none" stroke="#474747" stroke-linecap="round" stroke-linejoin="round" stroke-miterlimit="10" stroke-width="15" x1="428.906" x2="83.872" y1="83.573" y2="428.606"/><circle cx="190.12" cy="76.377" fill="none" r="22.639" stroke="#474747" stroke-linecap="round" stroke-linejoin="round" stroke-miterlimit="10" stroke-width="15"/><circle cx="321.12" cy="76.377" fill="none" r="22.639" stroke="#474747" stroke-linecap="round" stroke-linejoin="round" stroke-miterlimit="10" stroke-width="15"/></g></svg>